# xmcd
#
# Track frame offsets:
#	150
#	18333
#	51003
#
# Disc length: 1113 seconds
#
# Revision: 0
# Processed by: cddbd v1.5.2PL0 Copyright (c) Steve Scherf et al.
# Submitted via: audiograbber 1.83.01
#
DISCID=1a045703
DTITLE=Delain - Frozen
DYEAR=2007
DGENRE=Rock
TTITLE0=Frozen (Single Version)
TTITLE1=(Deep) Frozen
TTITLE2=Daten-CD
EXTD=
EXTT0=
EXTT1=
EXTT2=
PLAYORDER=
